<svg width="678" height="662" viewBox="0 0 678 662" fill="none" xmlns="http://www.w3.org/2000/svg">
<rect width="678" height="662" rx="101" fill="#8A47F6"/>
<path d="M578.889 127.912H190.092C180.725 127.912 173.131 135.197 173.131 144.183V434.557C173.131 443.543 180.725 450.828 190.092 450.828H578.889C588.256 450.828 595.85 443.543 595.85 434.557V144.183C595.85 135.197 588.256 127.912 578.889 127.912Z" fill="white" fill-opacity="0.7"/>
<path d="M533.225 169.215H144.428C135.061 169.215 127.467 176.5 127.467 185.486V475.86C127.467 484.846 135.061 492.131 144.428 492.131H533.225C542.592 492.131 550.186 484.846 550.186 475.86V185.486C550.186 176.5 542.592 169.215 533.225 169.215Z" fill="white" fill-opacity="0.7"/>
<path d="M487.758 210.518H98.9609C89.5937 210.518 82 217.803 82 226.789V517.163C82 526.149 89.5937 533.434 98.9609 533.434H487.758C497.125 533.434 504.719 526.149 504.719 517.163V226.789C504.719 217.803 497.125 210.518 487.758 210.518Z" fill="white" fill-opacity="0.7"/>
</svg>
